<svg width="146" height="40" viewBox="0 0 146 40" fill="none" xmlns="http://www.w3.org/2000/svg">
<g clip-path="url(#clip0_294_150)">
<path d="M12.167 9C12.167 8.44772 12.6147 8 13.167 8H35.5003C36.0526 8 36.5003 8.44772 36.5003 9V31C36.5003 31.5523 36.0526 32 35.5003 32H13.167C12.6147 32 12.167 31.5523 12.167 31V9Z" fill="#6366F1"/>
<path d="M21 9C21 8.44772 21.4477 8 22 8H37C37.5523 8 38 8.44772 38 9V31C38 31.5523 37.5523 32 37 32H22C21.4477 32 21 31.5523 21 31V9Z" fill="#4F46E5"/>
<path d="M48.72 25.46C48.8667 25.4733 49.0333 25.4867 49.22 25.5C49.42 25.5 49.6533 25.5 49.92 25.5C51.48 25.5 52.6333 25.1067 53.38 24.32C54.14 23.5333 54.52 22.4467 54.52 21.06C54.52 19.6067 54.16 18.5067 53.44 17.76C52.72 17.0133 51.58 16.64 50.02 16.64C49.8067 16.64 49.5867 16.6467 49.36 16.66C49.1333 16.66 48.92 16.6733 48.72 16.7V25.46ZM57.74 21.06C57.74 22.26 57.5533 23.3067 57.18 24.2C56.8067 25.0933 56.2733 25.8333 55.58 26.42C54.9 27.0067 54.0667 27.4467 53.08 27.74C52.0933 28.0333 50.9867 28.18 49.76 28.18C49.2 28.18 48.5467 28.1533 47.8 28.1C47.0533 28.06 46.32 27.9667 45.6 27.82V14.32C46.32 14.1867 47.0667 14.1 47.84 14.06C48.6267 14.0067 49.3 13.98 49.86 13.98C51.0467 13.98 52.12 14.1133 53.08 14.38C54.0533 14.6467 54.8867 15.0667 55.58 15.64C56.2733 16.2133 56.8067 16.9467 57.18 17.84C57.5533 18.7333 57.74 19.8067 57.74 21.06ZM62.9661 21.06C62.9661 21.74 63.0461 22.3533 63.2061 22.9C63.3794 23.4467 63.6194 23.92 63.9261 24.32C64.2461 24.7067 64.6328 25.0067 65.0861 25.22C65.5394 25.4333 66.0594 25.54 66.6461 25.54C67.2194 25.54 67.7328 25.4333 68.1861 25.22C68.6528 25.0067 69.0394 24.7067 69.3461 24.32C69.6661 23.92 69.9061 23.4467 70.0661 22.9C70.2394 22.3533 70.3261 21.74 70.3261 21.06C70.3261 20.38 70.2394 19.7667 70.0661 19.22C69.9061 18.66 69.6661 18.1867 69.3461 17.8C69.0394 17.4 68.6528 17.0933 68.1861 16.88C67.7328 16.6667 67.2194 16.56 66.6461 16.56C66.0594 16.56 65.5394 16.6733 65.0861 16.9C64.6328 17.1133 64.2461 17.42 63.9261 17.82C63.6194 18.2067 63.3794 18.68 63.2061 19.24C63.0461 19.7867 62.9661 20.3933 62.9661 21.06ZM73.5461 21.06C73.5461 22.2467 73.3661 23.2933 73.0061 24.2C72.6594 25.0933 72.1794 25.8467 71.5661 26.46C70.9528 27.06 70.2194 27.5133 69.3661 27.82C68.5261 28.1267 67.6194 28.28 66.6461 28.28C65.6994 28.28 64.8061 28.1267 63.9661 27.82C63.1261 27.5133 62.3928 27.06 61.7661 26.46C61.1394 25.8467 60.6461 25.0933 60.2861 24.2C59.9261 23.2933 59.7461 22.2467 59.7461 21.06C59.7461 19.8733 59.9328 18.8333 60.3061 17.94C60.6794 17.0333 61.1794 16.2733 61.8061 15.66C62.4461 15.0467 63.1794 14.5867 64.0061 14.28C64.8461 13.9733 65.7261 13.82 66.6461 13.82C67.5928 13.82 68.4861 13.9733 69.3261 14.28C70.1661 14.5867 70.8994 15.0467 71.5261 15.66C72.1528 16.2733 72.6461 17.0333 73.0061 17.94C73.3661 18.8333 73.5461 19.8733 73.5461 21.06ZM79.2669 25.46C79.4135 25.4733 79.5802 25.4867 79.7669 25.5C79.9669 25.5 80.2002 25.5 80.4669 25.5C82.0269 25.5 83.1802 25.1067 83.9269 24.32C84.6869 23.5333 85.0669 22.4467 85.0669 21.06C85.0669 19.6067 84.7069 18.5067 83.9869 17.76C83.2669 17.0133 82.1269 16.64 80.5669 16.64C80.3535 16.64 80.1335 16.6467 79.9069 16.66C79.6802 16.66 79.4669 16.6733 79.2669 16.7V25.46ZM88.2869 21.06C88.2869 22.26 88.1002 23.3067 87.7269 24.2C87.3535 25.0933 86.8202 25.8333 86.1269 26.42C85.4469 27.0067 84.6135 27.4467 83.6269 27.74C82.6402 28.0333 81.5335 28.18 80.3069 28.18C79.7469 28.18 79.0935 28.1533 78.3469 28.1C77.6002 28.06 76.8669 27.9667 76.1469 27.82V14.32C76.8669 14.1867 77.6135 14.1 78.3869 14.06C79.1735 14.0067 79.8469 13.98 80.4069 13.98C81.5935 13.98 82.6669 14.1133 83.6269 14.38C84.6002 14.6467 85.4335 15.0667 86.1269 15.64C86.8202 16.2133 87.3535 16.9467 87.7269 17.84C88.1002 18.7333 88.2869 19.8067 88.2869 21.06ZM93.513 21.06C93.513 21.74 93.593 22.3533 93.753 22.9C93.9263 23.4467 94.1663 23.92 94.473 24.32C94.793 24.7067 95.1796 25.0067 95.633 25.22C96.0863 25.4333 96.6063 25.54 97.193 25.54C97.7663 25.54 98.2796 25.4333 98.733 25.22C99.1996 25.0067 99.5863 24.7067 99.893 24.32C100.213 23.92 100.453 23.4467 100.613 22.9C100.786 22.3533 100.873 21.74 100.873 21.06C100.873 20.38 100.786 19.7667 100.613 19.22C100.453 18.66 100.213 18.1867 99.893 17.8C99.5863 17.4 99.1996 17.0933 98.733 16.88C98.2796 16.6667 97.7663 16.56 97.193 16.56C96.6063 16.56 96.0863 16.6733 95.633 16.9C95.1796 17.1133 94.793 17.42 94.473 17.82C94.1663 18.2067 93.9263 18.68 93.753 19.24C93.593 19.7867 93.513 20.3933 93.513 21.06ZM104.093 21.06C104.093 22.2467 103.913 23.2933 103.553 24.2C103.206 25.0933 102.726 25.8467 102.113 26.46C101.5 27.06 100.766 27.5133 99.913 27.82C99.073 28.1267 98.1663 28.28 97.193 28.28C96.2463 28.28 95.353 28.1267 94.513 27.82C93.673 27.5133 92.9396 27.06 92.313 26.46C91.6863 25.8467 91.193 25.0933 90.833 24.2C90.473 23.2933 90.293 22.2467 90.293 21.06C90.293 19.8733 90.4796 18.8333 90.853 17.94C91.2263 17.0333 91.7263 16.2733 92.353 15.66C92.993 15.0467 93.7263 14.5867 94.553 14.28C95.393 13.9733 96.273 13.82 97.193 13.82C98.1396 13.82 99.033 13.9733 99.873 14.28C100.713 14.5867 101.446 15.0467 102.073 15.66C102.7 16.2733 103.193 17.0333 103.553 17.94C103.913 18.8333 104.093 19.8733 104.093 21.06ZM109.314 21.06C109.314 21.74 109.394 22.3533 109.554 22.9C109.727 23.4467 109.967 23.92 110.274 24.32C110.594 24.7067 110.98 25.0067 111.434 25.22C111.887 25.4333 112.407 25.54 112.994 25.54C113.567 25.54 114.08 25.4333 114.534 25.22C115 25.0067 115.387 24.7067 115.694 24.32C116.014 23.92 116.254 23.4467 116.414 22.9C116.587 22.3533 116.674 21.74 116.674 21.06C116.674 20.38 116.587 19.7667 116.414 19.22C116.254 18.66 116.014 18.1867 115.694 17.8C115.387 17.4 115 17.0933 114.534 16.88C114.08 16.6667 113.567 16.56 112.994 16.56C112.407 16.56 111.887 16.6733 111.434 16.9C110.98 17.1133 110.594 17.42 110.274 17.82C109.967 18.2067 109.727 18.68 109.554 19.24C109.394 19.7867 109.314 20.3933 109.314 21.06ZM119.894 21.06C119.894 22.2467 119.714 23.2933 119.354 24.2C119.007 25.0933 118.527 25.8467 117.914 26.46C117.3 27.06 116.567 27.5133 115.714 27.82C114.874 28.1267 113.967 28.28 112.994 28.28C112.047 28.28 111.154 28.1267 110.314 27.82C109.474 27.5133 108.74 27.06 108.114 26.46C107.487 25.8467 106.994 25.0933 106.634 24.2C106.274 23.2933 106.094 22.2467 106.094 21.06C106.094 19.8733 106.28 18.8333 106.654 17.94C107.027 17.0333 107.527 16.2733 108.154 15.66C108.794 15.0467 109.527 14.5867 110.354 14.28C111.194 13.9733 112.074 13.82 112.994 13.82C113.94 13.82 114.834 13.9733 115.674 14.28C116.514 14.5867 117.247 15.0467 117.874 15.66C118.5 16.2733 118.994 17.0333 119.354 17.94C119.714 18.8333 119.894 19.8733 119.894 21.06ZM126.555 13.98C128.635 13.98 130.228 14.3533 131.335 15.1C132.441 15.8333 132.995 16.98 132.995 18.54C132.995 19.5133 132.768 20.3067 132.315 20.92C131.875 21.52 131.235 21.9933 130.395 22.34C130.675 22.6867 130.968 23.0867 131.275 23.54C131.581 23.98 131.881 24.4467 132.175 24.94C132.481 25.42 132.775 25.9267 133.055 26.46C133.335 26.98 133.595 27.4933 133.835 28H130.335C130.081 27.5467 129.821 27.0867 129.555 26.62C129.301 26.1533 129.035 25.7 128.755 25.26C128.488 24.82 128.221 24.4067 127.955 24.02C127.688 23.62 127.421 23.26 127.155 22.94H125.615V28H122.495V14.34C123.175 14.2067 123.875 14.1133 124.595 14.06C125.328 14.0067 125.981 13.98 126.555 13.98ZM126.735 16.64C126.508 16.64 126.301 16.6467 126.115 16.66C125.941 16.6733 125.775 16.6867 125.615 16.7V20.46H126.495C127.668 20.46 128.508 20.3133 129.015 20.02C129.521 19.7267 129.775 19.2267 129.775 18.52C129.775 17.84 129.515 17.36 128.995 17.08C128.488 16.7867 127.735 16.64 126.735 16.64Z" fill="#333333"/>
</g>
<defs>
<clipPath id="clip0_294_150">
<rect width="146" height="40" fill="white"/>
</clipPath>
</defs>
</svg>
