<svg width="231" height="48" viewBox="0 0 231 48" fill="none" xmlns="http://www.w3.org/2000/svg">
<path d="M4.67429 45V11.0102H15.7808C19.3553 11.0102 22.3235 11.7762 24.6852 13.3081C27.0469 14.8081 28.8182 16.8507 29.9991 19.4358C31.2119 21.9891 31.8183 24.8295 31.8183 27.9572C31.8183 31.4041 31.164 34.4041 29.8555 36.9573C28.5469 39.5106 26.6799 41.4893 24.2543 42.8936C21.8607 44.2979 19.0362 45 15.7808 45H4.67429ZM30.1427 27.9572C30.1427 24.9891 29.5842 22.3401 28.4672 20.0103C27.3501 17.6805 25.7224 15.8613 23.5841 14.5528C21.4777 13.2124 18.8766 12.5421 15.7808 12.5421H6.34985V43.4681H15.7808C18.9085 43.4681 21.5415 42.7978 23.6799 41.4574C25.8182 40.085 27.4299 38.218 28.515 35.8563C29.6001 33.4945 30.1427 30.8615 30.1427 27.9572Z" fill="black"/>
<path d="M91.8984 45V11.0102H103.005C106.579 11.0102 109.548 11.7762 111.909 13.3081C114.271 14.8081 116.042 16.8507 117.223 19.4358C118.436 21.9891 119.042 24.8295 119.042 27.9572C119.042 31.4041 118.388 34.4041 117.08 36.9573C115.771 39.5106 113.904 41.4893 111.478 42.8936C109.085 44.2979 106.26 45 103.005 45H91.8984ZM117.367 27.9572C117.367 24.9891 116.808 22.3401 115.691 20.0103C114.574 17.6805 112.947 15.8613 110.808 14.5528C108.702 13.2124 106.101 12.5421 103.005 12.5421H93.574V43.4681H103.005C106.133 43.4681 108.766 42.7978 110.904 41.4574C113.042 40.085 114.654 38.218 115.739 35.8563C116.824 33.4945 117.367 30.8615 117.367 27.9572ZM139.48 45.2394C137.118 45.2394 134.964 44.7606 133.017 43.8032C131.07 42.8138 129.395 41.5053 127.991 39.8776C126.586 38.2499 125.501 36.4148 124.735 34.3722C123.969 32.2977 123.586 30.1753 123.586 28.0051C123.586 25.7391 123.985 23.5848 124.783 21.5423C125.581 19.4678 126.698 17.6326 128.134 16.0369C129.602 14.4092 131.294 13.1326 133.209 12.207C135.155 11.2496 137.246 10.7708 139.48 10.7708C141.842 10.7708 143.996 11.2655 145.943 12.2549C147.89 13.2443 149.549 14.5688 150.922 16.2284C152.326 17.888 153.411 19.739 154.177 21.7816C154.943 23.8242 155.326 25.8987 155.326 28.0051C155.326 30.303 154.927 32.4892 154.129 34.5637C153.331 36.6063 152.214 38.4414 150.778 40.0691C149.342 41.6649 147.65 42.9255 145.703 43.851C143.789 44.7766 141.714 45.2394 139.48 45.2394ZM125.262 28.0051C125.262 30.0477 125.613 32.0105 126.315 33.8935C127.017 35.7446 127.991 37.4042 129.235 38.8723C130.512 40.3404 132.012 41.5053 133.735 42.367C135.491 43.2287 137.406 43.6596 139.48 43.6596C141.586 43.6596 143.517 43.2127 145.273 42.3191C147.028 41.4255 148.528 40.2287 149.773 38.7286C151.017 37.2286 151.975 35.5531 152.645 33.702C153.315 31.8509 153.65 29.9519 153.65 28.0051C153.65 25.9625 153.299 24.0157 152.597 22.1646C151.895 20.2816 150.906 18.606 149.629 17.1379C148.352 15.6698 146.836 14.5049 145.081 13.6432C143.358 12.7815 141.491 12.3506 139.48 12.3506C137.342 12.3506 135.395 12.7975 133.64 13.6911C131.916 14.5847 130.432 15.7815 129.187 17.2816C127.943 18.7816 126.969 20.4571 126.267 22.3082C125.597 24.1593 125.262 26.0583 125.262 28.0051ZM175.618 45.2394C173.257 45.2394 171.102 44.7606 169.156 43.8032C167.209 42.8138 165.533 41.5053 164.129 39.8776C162.725 38.2499 161.64 36.4148 160.874 34.3722C160.108 32.2977 159.725 30.1753 159.725 28.0051C159.725 25.7391 160.124 23.5848 160.921 21.5423C161.719 19.4678 162.836 17.6326 164.273 16.0369C165.741 14.4092 167.432 13.1326 169.347 12.207C171.294 11.2496 173.384 10.7708 175.618 10.7708C177.98 10.7708 180.134 11.2655 182.081 12.2549C184.028 13.2443 185.688 14.5688 187.06 16.2284C188.464 17.888 189.55 19.739 190.315 21.7816C191.081 23.8242 191.464 25.8987 191.464 28.0051C191.464 30.303 191.065 32.4892 190.268 34.5637C189.47 36.6063 188.353 38.4414 186.916 40.0691C185.48 41.6649 183.789 42.9255 181.842 43.851C179.927 44.7766 177.853 45.2394 175.618 45.2394ZM161.4 28.0051C161.4 30.0477 161.751 32.0105 162.453 33.8935C163.156 35.7446 164.129 37.4042 165.374 38.8723C166.65 40.3404 168.15 41.5053 169.874 42.367C171.629 43.2287 173.544 43.6596 175.618 43.6596C177.725 43.6596 179.656 43.2127 181.411 42.3191C183.166 41.4255 184.666 40.2287 185.911 38.7286C187.156 37.2286 188.113 35.5531 188.784 33.702C189.454 31.8509 189.789 29.9519 189.789 28.0051C189.789 25.9625 189.438 24.0157 188.736 22.1646C188.034 20.2816 187.044 18.606 185.768 17.1379C184.491 15.6698 182.975 14.5049 181.22 13.6432C179.496 12.7815 177.629 12.3506 175.618 12.3506C173.48 12.3506 171.533 12.7975 169.778 13.6911C168.055 14.5847 166.57 15.7815 165.326 17.2816C164.081 18.7816 163.108 20.4571 162.406 22.3082C161.735 24.1593 161.4 26.0583 161.4 28.0051ZM198.257 45V11.0102H212.236C213.672 11.0102 214.98 11.3134 216.161 11.9198C217.342 12.4943 218.363 13.2921 219.225 14.3134C220.087 15.3028 220.757 16.4198 221.236 17.6645C221.715 18.8773 221.954 20.122 221.954 21.3986C221.954 23.1221 221.603 24.7338 220.901 26.2338C220.199 27.7338 219.225 28.9785 217.98 29.9679C216.736 30.9573 215.284 31.5317 213.624 31.6913L222.145 45H220.23L211.805 31.8828H199.932V45H198.257ZM199.932 30.3509H212.523C214.119 30.3509 215.491 29.92 216.64 29.0583C217.821 28.1966 218.73 27.0796 219.369 25.7072C220.007 24.3348 220.326 22.8987 220.326 21.3986C220.326 19.8667 219.959 18.4305 219.225 17.0901C218.491 15.7177 217.502 14.6166 216.257 13.7868C215.044 12.957 213.688 12.5421 212.188 12.5421H199.932V30.3509Z" fill="black"/>
<rect x="60.233" y="27.3202" width="2.00515" height="2.00515" fill="black"/>
<rect x="37.1738" y="10.5271" width="28.3227" height="33.5863" rx="6.76738" stroke="black" stroke-width="1.50386"/>
</svg>
